<mxfile host="app.diagrams.net" modified="2023-05-29T09:42:52.868Z" agent="Mozilla/5.0 (Windows NT 10.0; Win64; x64) AppleWebKit/537.36 (KHTML, like Gecko) Chrome/113.0.0.0 Safari/537.36 Edg/113.0.1774.50" etag="U6k8KfAm70rd9Yh-bkIW" version="21.3.5" type="github">
  <diagram name="Page-1" id="DbOsvjR_HLdiZUUzcOsk">
    <mxGraphModel dx="666" dy="1706" grid="1" gridSize="10" guides="1" tooltips="1" connect="1" arrows="1" fold="1" page="1" pageScale="1" pageWidth="827" pageHeight="1169" math="0" shadow="0">
      <root>
        <mxCell id="0" />
        <mxCell id="1" parent="0" />
        <mxCell id="O8WECR-kRz9t1PQ1FcO--1" value="&lt;font style=&quot;font-size: 10px;&quot;&gt;Application 1 (build to run at target Linux system)&lt;/font&gt;" style="rounded=0;whiteSpace=wrap;html=1;" vertex="1" parent="1">
          <mxGeometry x="130" y="120" width="120" height="60" as="geometry" />
        </mxCell>
        <mxCell id="O8WECR-kRz9t1PQ1FcO--2" value="&lt;font style=&quot;font-size: 10px;&quot;&gt;Application 2 (build to run at target Linux system)&lt;/font&gt;" style="rounded=0;whiteSpace=wrap;html=1;" vertex="1" parent="1">
          <mxGeometry x="130" y="210" width="120" height="60" as="geometry" />
        </mxCell>
        <mxCell id="O8WECR-kRz9t1PQ1FcO--3" value="&lt;font style=&quot;font-size: 10px;&quot;&gt;Application n (build to run at target Linux system)&lt;/font&gt;" style="rounded=0;whiteSpace=wrap;html=1;" vertex="1" parent="1">
          <mxGeometry x="130" y="320" width="120" height="60" as="geometry" />
        </mxCell>
        <mxCell id="O8WECR-kRz9t1PQ1FcO--6" value="" style="endArrow=none;dashed=1;html=1;dashPattern=1 3;strokeWidth=2;rounded=0;entryX=0.5;entryY=1;entryDx=0;entryDy=0;exitX=0.5;exitY=0;exitDx=0;exitDy=0;" edge="1" parent="1" source="O8WECR-kRz9t1PQ1FcO--3" target="O8WECR-kRz9t1PQ1FcO--2">
          <mxGeometry width="50" height="50" relative="1" as="geometry">
            <mxPoint x="170" y="330" as="sourcePoint" />
            <mxPoint x="220" y="280" as="targetPoint" />
          </mxGeometry>
        </mxCell>
        <mxCell id="O8WECR-kRz9t1PQ1FcO--8" value="" style="endArrow=none;html=1;rounded=0;entryX=0.5;entryY=1;entryDx=0;entryDy=0;" edge="1" parent="1" target="O8WECR-kRz9t1PQ1FcO--1">
          <mxGeometry width="50" height="50" relative="1" as="geometry">
            <mxPoint x="190" y="210" as="sourcePoint" />
            <mxPoint x="220" y="280" as="targetPoint" />
          </mxGeometry>
        </mxCell>
        <mxCell id="O8WECR-kRz9t1PQ1FcO--10" value="&lt;font style=&quot;font-size: 10px;&quot;&gt;Create OPKG Package&amp;nbsp; structure&amp;nbsp;&lt;/font&gt;" style="rounded=0;whiteSpace=wrap;html=1;" vertex="1" parent="1">
          <mxGeometry x="370" y="210" width="120" height="60" as="geometry" />
        </mxCell>
        <mxCell id="O8WECR-kRz9t1PQ1FcO--11" value="" style="endArrow=classic;html=1;rounded=0;exitX=1;exitY=0.5;exitDx=0;exitDy=0;entryX=0;entryY=0.5;entryDx=0;entryDy=0;" edge="1" parent="1" source="O8WECR-kRz9t1PQ1FcO--2" target="O8WECR-kRz9t1PQ1FcO--10">
          <mxGeometry width="50" height="50" relative="1" as="geometry">
            <mxPoint x="270" y="310" as="sourcePoint" />
            <mxPoint x="320" y="260" as="targetPoint" />
          </mxGeometry>
        </mxCell>
        <mxCell id="O8WECR-kRz9t1PQ1FcO--12" value="" style="endArrow=none;html=1;rounded=0;exitX=1;exitY=0.5;exitDx=0;exitDy=0;" edge="1" parent="1" source="O8WECR-kRz9t1PQ1FcO--3">
          <mxGeometry width="50" height="50" relative="1" as="geometry">
            <mxPoint x="270" y="310" as="sourcePoint" />
            <mxPoint x="310" y="240" as="targetPoint" />
            <Array as="points">
              <mxPoint x="310" y="350" />
            </Array>
          </mxGeometry>
        </mxCell>
        <mxCell id="O8WECR-kRz9t1PQ1FcO--14" value="" style="endArrow=none;html=1;rounded=0;exitX=1;exitY=0.5;exitDx=0;exitDy=0;" edge="1" parent="1" source="O8WECR-kRz9t1PQ1FcO--1">
          <mxGeometry width="50" height="50" relative="1" as="geometry">
            <mxPoint x="270" y="310" as="sourcePoint" />
            <mxPoint x="310" y="240" as="targetPoint" />
            <Array as="points">
              <mxPoint x="310" y="150" />
            </Array>
          </mxGeometry>
        </mxCell>
        <mxCell id="O8WECR-kRz9t1PQ1FcO--15" value="&lt;font style=&quot;font-size: 10px;&quot;&gt;1st .ipk Package&lt;/font&gt;" style="rounded=0;whiteSpace=wrap;html=1;" vertex="1" parent="1">
          <mxGeometry x="640" y="310" width="120" height="60" as="geometry" />
        </mxCell>
        <mxCell id="O8WECR-kRz9t1PQ1FcO--20" style="edgeStyle=orthogonalEdgeStyle;rounded=0;orthogonalLoop=1;jettySize=auto;html=1;exitX=0.25;exitY=1;exitDx=0;exitDy=0;entryX=0;entryY=0.5;entryDx=0;entryDy=0;" edge="1" parent="1" source="O8WECR-kRz9t1PQ1FcO--16" target="O8WECR-kRz9t1PQ1FcO--18">
          <mxGeometry relative="1" as="geometry">
            <mxPoint x="590.5454545454545" y="560" as="targetPoint" />
            <Array as="points">
              <mxPoint x="590" y="415" />
              <mxPoint x="591" y="530" />
            </Array>
          </mxGeometry>
        </mxCell>
        <mxCell id="O8WECR-kRz9t1PQ1FcO--16" value="&lt;font style=&quot;font-size: 10px;&quot;&gt;Run OPKG build command&lt;/font&gt;" style="rounded=0;whiteSpace=wrap;html=1;" vertex="1" parent="1">
          <mxGeometry x="560" y="210" width="120" height="60" as="geometry" />
        </mxCell>
        <mxCell id="O8WECR-kRz9t1PQ1FcO--17" value="2nd .ipk Package" style="rounded=0;whiteSpace=wrap;html=1;" vertex="1" parent="1">
          <mxGeometry x="640" y="400" width="120" height="60" as="geometry" />
        </mxCell>
        <mxCell id="O8WECR-kRz9t1PQ1FcO--18" value="nth .ipk Package" style="rounded=0;whiteSpace=wrap;html=1;" vertex="1" parent="1">
          <mxGeometry x="640" y="500" width="120" height="60" as="geometry" />
        </mxCell>
        <mxCell id="O8WECR-kRz9t1PQ1FcO--21" value="" style="endArrow=classic;html=1;rounded=0;entryX=0;entryY=0.5;entryDx=0;entryDy=0;" edge="1" parent="1" target="O8WECR-kRz9t1PQ1FcO--15">
          <mxGeometry width="50" height="50" relative="1" as="geometry">
            <mxPoint x="590" y="340" as="sourcePoint" />
            <mxPoint x="630" y="410" as="targetPoint" />
          </mxGeometry>
        </mxCell>
        <mxCell id="O8WECR-kRz9t1PQ1FcO--22" value="" style="endArrow=classic;html=1;rounded=0;entryX=0;entryY=0.5;entryDx=0;entryDy=0;" edge="1" parent="1" target="O8WECR-kRz9t1PQ1FcO--17">
          <mxGeometry width="50" height="50" relative="1" as="geometry">
            <mxPoint x="590" y="430" as="sourcePoint" />
            <mxPoint x="650" y="350" as="targetPoint" />
          </mxGeometry>
        </mxCell>
        <mxCell id="O8WECR-kRz9t1PQ1FcO--24" value="" style="endArrow=classic;html=1;rounded=0;exitX=1;exitY=0.5;exitDx=0;exitDy=0;entryX=0;entryY=0.5;entryDx=0;entryDy=0;" edge="1" parent="1" source="O8WECR-kRz9t1PQ1FcO--10" target="O8WECR-kRz9t1PQ1FcO--16">
          <mxGeometry width="50" height="50" relative="1" as="geometry">
            <mxPoint x="400" y="460" as="sourcePoint" />
            <mxPoint x="450" y="410" as="targetPoint" />
          </mxGeometry>
        </mxCell>
      </root>
    </mxGraphModel>
  </diagram>
</mxfile>
